{
    "accessors": [
        {
            "bufferView": 3,
            "byteOffset": 0,
            "componentType": 5126,
            "count": 822,
            "max": [
                1.0,
                1.0,
                1.0
            ],
            "min": [
                1.0,
                1.0,
                1.0
            ],
            "name": "accessor_buffer_Cube.003_COLOR_0_0",
            "type": "VEC3"
        },
        {
            "bufferView": 1,
            "byteOffset": 0,
            "componentType": 5126,
            "count": 822,
            "max": [
                0.9998493194580078,
                0.9993575811386108,
                0.9999872446060181
            ],
            "min": [
                -0.999990701675415,
                -1.0,
                -0.999907910823822
            ],
            "name": "accessor_buffer_Cube.003_NORMAL_0",
            "type": "VEC3"
        },
        {
            "bufferView": 4,
            "byteOffset": 0,
            "componentType": 5123,
            "count": 1128,
            "max": [
                821
            ],
            "min": [
                0
            ],
            "name": "accessor_buffer_Cube.003_0",
            "type": "SCALAR"
        },
        {
            "bufferView": 2,
            "byteOffset": 0,
            "componentType": 5126,
            "count": 822,
            "max": [
                0.8164055943489075,
                0.9944590665400028
            ],
            "min": [
                0.012161437422037125,
                -0.0002592802047729492
            ],
            "name": "accessor_buffer_Cube.003_TEXCOORD_0_0",
            "type": "VEC2"
        },
        {
            "bufferView": 0,
            "byteOffset": 0,
            "componentType": 5126,
            "count": 822,
            "max": [
                6.172945976257324,
                26.34113883972168,
                3.0301177501678467
            ],
            "min": [
                -10.160674095153809,
                -0.06558099389076233,
                -3.029902935028076
            ],
            "name": "accessor_buffer_Cube.003_POSITION_0",
            "type": "VEC3"
        }
    ],
    "asset": {
        "version": "2.0"
    },
    "bufferViews": [
        {
            "buffer": 0,
            "byteLength": 9864,
            "byteOffset": 0,
            "byteStride": 12,
            "name": "bufferView_buffer_Cube.003_POSITION_0",
            "target": 34962
        },
        {
            "buffer": 0,
            "byteLength": 9864,
            "byteOffset": 9864,
            "byteStride": 12,
            "name": "bufferView_buffer_Cube.003_NORMAL_0",
            "target": 34962
        },
        {
            "buffer": 0,
            "byteLength": 6576,
            "byteOffset": 19728,
            "byteStride": 8,
            "name": "bufferView_buffer_Cube.003_TEXCOORD_0_0",
            "target": 34962
        },
        {
            "buffer": 0,
            "byteLength": 9864,
            "byteOffset": 26304,
            "byteStride": 12,
            "name": "bufferView_buffer_Cube.003_COLOR_0_0",
            "target": 34962
        },
        {
            "buffer": 0,
            "byteLength": 2256,
            "byteOffset": 36168,
            "name": "bufferView_buffer_Cube.003_0",
            "target": 34963
        }
    ],
    "buffers": [
        {
            "byteLength": 38424,
            "name": "buffer_BasicGiraffe",
            "uri": "buffer_BasicGiraffe.bin"
        }
    ],
    "meshes": [
        {
            "name": "Cube.003",
            "primitives": [
                {
                    "attributes": {
                        "COLOR_0": 0,
                        "NORMAL": 1,
                        "POSITION": 4,
                        "TEXCOORD_0": 3
                    },
                    "indices": 2,
                    "mode": 4
                }
            ]
        }
    ],
    "nodes": [
        {
            "mesh": 0,
            "name": "Giraffe",
            "rotation": [
                0.7071068286895752,
                0.0,
                0.0,
                0.7071067094802856
            ],
            "scale": [
                1.0,
                1.0,
                1.0
            ],
            "translation": [
                0.0,
                0.0,
                0.0
            ]
        },
        {
            "children": [
                0
            ],
            "matrix": [
                -1.0,
                0.0,
                0.0,
                0.0,
                0.0,
                0.0,
                1.0,
                0.0,
                0.0,
                1.0,
                0.0,
                0.0,
                0.0,
                0.0,
                0.0,
                1.0
            ],
            "name": "Scene_root"
        }
    ],
    "scene": 0,
    "scenes": [
        {
            "extras": {
                "background_color": [
                    0.05087608844041824,
                    0.05087608844041824,
                    0.05087608844041824
                ],
                "frames_per_second": 24
            },
            "name": "Scene",
            "nodes": [
                1
            ]
        }
    ]
}
