{
  "accessors": [
    {
      "name": "Giraffe_Cube.003-Mesh_positions",
      "componentType": 5126,
      "count": 824,
      "min": [
        -12.786600112915039,
        -0.06985799968242645,
        -1.7631030082702637
      ],
      "max": [
        2.9728100299835205,
        26.439022064208984,
        4.355414867401123
      ],
      "type": "VEC3",
      "bufferView": 0,
      "byteOffset": 0
    },
    {
      "name": "Giraffe_Cube.003-Mesh_normals",
      "componentType": 5126,
      "count": 824,
      "min": [
        -0.9980000257492065,
        -0.994700014591217,
        -0.9997000098228455
      ],
      "max": [
        0.9944000244140625,
        0.9994999766349792,
        0.9998999834060669
      ],
      "type": "VEC3",
      "bufferView": 0,
      "byteOffset": 9888
    },
    {
      "name": "Giraffe_Cube.003-Mesh_texcoords",
      "componentType": 5126,
      "count": 824,
      "min": [
        0.012160999700427055,
        -0.0002589999930933118
      ],
      "max": [
        0.8164060115814209,
        0.9944589734077454
      ],
      "type": "VEC2",
      "bufferView": 1,
      "byteOffset": 0
    },
    {
      "name": "Giraffe_Cube.003-Mesh_0_indices",
      "componentType": 5123,
      "count": 1128,
      "min": [
        0
      ],
      "max": [
        823
      ],
      "type": "SCALAR",
      "bufferView": 2,
      "byteOffset": 0
    }
  ],
  "asset": {
    "generator": "obj2gltf",
    "version": "2.0"
  },
  "buffers": [
    {
      "name": "Giraffe",
      "byteLength": 344312,
      "uri": "data:application/octet-stream;base64,"
    }
  ],
  "bufferViews": [
    {
      "name": "bufferView_0",
      "buffer": 0,
      "byteLength": 19776,
      "byteOffset": 0,
      "byteStride": 12,
      "target": 34962
    },
    {
      "name": "bufferView_1",
      "buffer": 0,
      "byteLength": 6592,
      "byteOffset": 19776,
      "byteStride": 8,
      "target": 34962
    },
    {
      "name": "bufferView_2",
      "buffer": 0,
      "byteLength": 2256,
      "byteOffset": 26368,
      "target": 34963
    },
    {
      "buffer": 0,
      "byteOffset": 28624,
      "byteLength": 315686
    }
  ],
  "images": [
    {
      "name": "GiraffeUV_coloured",
      "mimeType": "image/png",
      "bufferView": 3
    }
  ],
  "materials": [
    {
      "name": "Material.001",
      "pbrMetallicRoughness": {
        "baseColorTexture": {
          "index": 0
        },
        "baseColorFactor": [
          1,
          1,
          1,
          1
        ],
        "metallicFactor": 0,
        "roughnessFactor": 0.903921569
      },
      "emissiveFactor": [
        0,
        0,
        0
      ],
      "alphaMode": "OPAQUE",
      "doubleSided": false
    }
  ],
  "meshes": [
    {
      "name": "Giraffe_Cube.003-Mesh",
      "primitives": [
        {
          "attributes": {
            "POSITION": 0,
            "NORMAL": 1,
            "TEXCOORD_0": 2
          },
          "indices": 3,
          "material": 0,
          "mode": 4
        }
      ]
    }
  ],
  "nodes": [
    {
      "name": "Giraffe_Cube.003",
      "mesh": 0
    }
  ],
  "samplers": [
    {
      "magFilter": 9729,
      "minFilter": 9986,
      "wrapS": 10497,
      "wrapT": 10497
    }
  ],
  "scene": 0,
  "scenes": [
    {
      "nodes": [
        0
      ]
    }
  ],
  "textures": [
    {
      "name": "GiraffeUV_coloured",
      "sampler": 0,
      "source": 0
    }
  ]
}
